<?xml version="1.0" encoding="UTF-8" standalone="no"?>
<!-- Created with Inkscape (http://www.inkscape.org/) -->

<svg
   xmlns:dc="http://purl.org/dc/elements/1.1/"
   xmlns:cc="http://creativecommons.org/ns#"
   xmlns:rdf="http://www.w3.org/1999/02/22-rdf-syntax-ns#"
   xmlns:svg="http://www.w3.org/2000/svg"
   xmlns="http://www.w3.org/2000/svg"
   xmlns:sodipodi="http://sodipodi.sourceforge.net/DTD/sodipodi-0.dtd"
   xmlns:inkscape="http://www.inkscape.org/namespaces/inkscape"
   width="501.85114"
   height="128.00002"
   viewBox="0 0 132.78145 33.86667"
   version="1.1"
   id="svg1885"
   inkscape:version="0.92.5 (2060ec1f9f, 2020-04-08)"
   sodipodi:docname="dormit-text.svg">
  <defs
     id="defs1879" />
  <sodipodi:namedview
     id="base"
     pagecolor="#ffffff"
     bordercolor="#666666"
     borderopacity="1.0"
     inkscape:pageopacity="0.0"
     inkscape:pageshadow="2"
     inkscape:zoom="1.979899"
     inkscape:cx="409.26722"
     inkscape:cy="138.17761"
     inkscape:document-units="mm"
     inkscape:current-layer="layer1"
     showgrid="false"
     inkscape:pagecheckerboard="true"
     units="px"
     fit-margin-top="0"
     fit-margin-left="0"
     fit-margin-right="0"
     fit-margin-bottom="0"
     inkscape:window-width="3840"
     inkscape:window-height="2046"
     inkscape:window-x="0"
     inkscape:window-y="54"
     inkscape:window-maximized="1" />
  <metadata
     id="metadata1882">
    <rdf:RDF>
      <cc:Work
         rdf:about="">
        <dc:format>image/svg+xml</dc:format>
        <dc:type
           rdf:resource="http://purl.org/dc/dcmitype/StillImage" />
        <dc:title></dc:title>
      </cc:Work>
    </rdf:RDF>
  </metadata>
  <g
     inkscape:label="Layer 1"
     inkscape:groupmode="layer"
     id="layer1"
     transform="translate(-4.5003371,-253.18796)">
    <path
       inkscape:connector-curvature="0"
       id="path2463"
       style="font-style:normal;font-variant:normal;font-weight:bold;font-stretch:normal;font-size:39.62729645px;line-height:1.25;font-family:Mulish;-inkscape-font-specification:'Mulish Bold';letter-spacing:-1px;word-spacing:0px;fill:#ffffff;fill-opacity:1;stroke:none;stroke-width:1.14561629"
       d="m 14.624023,287.05463 q -2.996245,0 -5.3115361,-1.40733 -2.2698783,-1.45272 -3.5410198,-4.13119 -1.27113,-2.67846 -1.27113,-6.40107 0,-3.72261 1.27113,-6.35567 1.2711415,-2.67847 3.5410198,-4.08579 2.3152911,-1.45273 5.3115361,-1.45273 2.860054,0 5.039142,1.40733 2.224478,1.36193 2.950844,3.72261 h -0.590164 v -15.16283 h 5.674707 v 33.41269 h -5.583917 v -4.85755 h 0.544775 q -0.726367,2.45148 -2.950856,3.9042 -2.179088,1.40733 -5.084531,1.40733 z m 1.588912,-4.35818 q 2.678463,0 4.312788,-1.8613 1.634313,-1.9067 1.634313,-5.72011 0,-3.8134 -1.634313,-5.67471 -1.634325,-1.8613 -4.312788,-1.8613 -2.678462,0 -4.358176,1.8613 -1.634314,1.86131 -1.634314,5.67471 0,3.81341 1.634314,5.72011 1.679714,1.8613 4.358176,1.8613 z" />
    <path
       inkscape:connector-curvature="0"
       id="path2465"
       style="font-style:normal;font-variant:normal;font-weight:bold;font-stretch:normal;font-size:39.62729645px;line-height:1.25;font-family:Mulish;-inkscape-font-specification:'Mulish Bold';letter-spacing:-1px;word-spacing:0px;fill:#ffffff;fill-opacity:1;stroke:none;stroke-width:1.14561629"
       d="m 42.019304,287.05463 q -3.54102,0 -6.128681,-1.45273 -2.587672,-1.45272 -4.040394,-4.13119 -1.407332,-2.67846 -1.407332,-6.35567 0,-3.67721 1.407332,-6.31028 1.452722,-2.67846 4.040394,-4.13118 2.587661,-1.45273 6.128681,-1.45273 3.541019,0 6.128692,1.45273 2.633061,1.45272 4.040394,4.13118 1.452721,2.63307 1.452721,6.31028 0,3.67721 -1.452721,6.35567 -1.407333,2.67847 -4.040394,4.13119 -2.587673,1.45273 -6.128692,1.45273 z m 0,-4.35818 q 2.678462,0 4.267386,-1.8613 1.588913,-1.9067 1.588913,-5.72011 0,-3.8134 -1.588913,-5.67471 -1.588924,-1.8613 -4.267386,-1.8613 -2.678463,0 -4.267375,1.8613 -1.588924,1.86131 -1.588924,5.67471 0,3.81341 1.588924,5.72011 1.588912,1.8613 4.267375,1.8613 z" />
    <path
       inkscape:connector-curvature="0"
       id="path2467"
       style="font-style:normal;font-variant:normal;font-weight:bold;font-stretch:normal;font-size:39.62729645px;line-height:1.25;font-family:Mulish;-inkscape-font-specification:'Mulish Bold';letter-spacing:-1px;word-spacing:0px;fill:#ffffff;fill-opacity:1;stroke:none;stroke-width:1.14561629"
       d="m 56.823844,286.60065 v -17.06952 q 0,-1.45273 -0.09085,-2.95085 -0.04537,-1.49813 -0.226993,-2.90545 h 5.493128 l 0.635565,6.26488 h -0.907959 q 0.453985,-2.26989 1.498123,-3.76801 1.08955,-1.49812 2.633073,-2.22449 1.543523,-0.72636 3.359428,-0.72636 0.817157,0 1.316531,0.0908 0.499374,0.0454 0.998748,0.22699 l -0.04537,4.99374 q -0.862558,-0.36318 -1.498123,-0.45398 -0.590164,-0.0908 -1.498122,-0.0908 -1.952096,0 -3.314028,0.81716 -1.31653,0.81716 -1.997496,2.26989 -0.635577,1.45272 -0.635577,3.31403 v 12.21197 z" />
    <path
       inkscape:connector-curvature="0"
       id="path2469"
       style="font-style:normal;font-variant:normal;font-weight:bold;font-stretch:normal;font-size:39.62729645px;line-height:1.25;font-family:Mulish;-inkscape-font-specification:'Mulish Bold';letter-spacing:-1px;word-spacing:0px;fill:#ffffff;fill-opacity:1;stroke:none;stroke-width:1.14561629"
       d="m 74.094063,286.60065 v -17.20572 q 0,-1.40733 -0.09085,-2.86005 -0.09085,-1.45273 -0.272381,-2.86005 h 5.493115 l 0.453974,4.53976 h -0.544764 q 0.953348,-2.36068 2.905443,-3.67721 1.997497,-1.31653 4.72136,-1.31653 2.723863,0 4.494367,1.31653 1.815917,1.27114 2.542272,3.995 h -0.726355 q 0.953347,-2.45148 3.132436,-3.8588 2.179088,-1.45273 4.99374,-1.45273 3.85881,0 5.76551,2.26988 1.9067,2.26989 1.9067,7.08204 v 14.02788 h -5.67471 v -13.80089 q 0,-2.72386 -0.90795,-3.9042 -0.90796,-1.22574 -2.905454,-1.22574 -2.36068,0 -3.722611,1.67972 -1.361932,1.63431 -1.361932,4.44897 v 12.80214 h -5.674661 v -13.80089 q 0,-2.72386 -0.907959,-3.9042 -0.907946,-1.22574 -2.905443,-1.22574 -2.36068,0 -3.722611,1.67972 -1.316531,1.63431 -1.316531,4.44897 v 12.80214 z" />
    <path
       inkscape:connector-curvature="0"
       id="path2471"
       style="font-style:normal;font-variant:normal;font-weight:bold;font-stretch:normal;font-size:39.62729645px;line-height:1.25;font-family:Mulish;-inkscape-font-specification:'Mulish Bold';letter-spacing:-1px;word-spacing:0px;fill:#ffffff;fill-opacity:1;stroke:none;stroke-width:1.14561629"
       d="m 112.70253,286.60065 v -22.92582 h 5.6747 v 22.92582 z m -0.31779,-27.2386 v -5.53852 h 6.31029 v 5.53852 z" />
    <path
       inkscape:connector-curvature="0"
       id="path2473"
       style="font-style:normal;font-variant:normal;font-weight:bold;font-stretch:normal;font-size:39.62729645px;line-height:1.25;font-family:Mulish;-inkscape-font-specification:'Mulish Bold';letter-spacing:-1px;word-spacing:0px;fill:#ffffff;fill-opacity:1;stroke:none;stroke-width:1.14561629"
       d="m 133.74076,287.05463 q -4.08579,0 -6.17408,-2.13369 -2.0883,-2.13369 -2.0883,-6.40107 v -10.57766 h -4.40358 v -4.26738 h 4.40358 v -5.8563 l 5.67471,-1.45273 v 7.30903 h 6.12869 v 4.26738 h -6.12869 v 10.21448 q 0,2.36067 0.90796,3.31402 0.90795,0.95336 2.49687,0.95336 0.86255,0 1.45273,-0.1362 0.63557,-0.13619 1.22573,-0.36318 v 4.49437 q -0.77176,0.31779 -1.7251,0.45398 -0.90796,0.18159 -1.77052,0.18159 z" />
  </g>
</svg>
